<mxfile host="Electron" modified="2024-03-19T03:32:22.770Z" agent="Mozilla/5.0 (Windows NT 10.0; Win64; x64) AppleWebKit/537.36 (KHTML, like Gecko) draw.io/23.1.5 Chrome/120.0.6099.109 Electron/28.1.0 Safari/537.36" etag="7nrB9frp0CCS9NSFtopF" version="23.1.5" type="device">
  <diagram name="Page-1" id="e7e014a7-5840-1c2e-5031-d8a46d1fe8dd">
    <mxGraphModel dx="1219" dy="713" grid="1" gridSize="10" guides="1" tooltips="1" connect="1" arrows="1" fold="1" page="1" pageScale="1" pageWidth="1169" pageHeight="826" background="none" math="0" shadow="0">
      <root>
        <mxCell id="0" />
        <mxCell id="1" parent="0" />
        <mxCell id="q2LtuayfPz7vb-qfGDJ4-41" value="" style="ellipse;html=1;shape=startState;fillColor=#F2CC8F;strokeColor=#E07A5F;labelBackgroundColor=none;fontColor=#393C56;" vertex="1" parent="1">
          <mxGeometry x="520" y="30" width="30" height="30" as="geometry" />
        </mxCell>
        <mxCell id="q2LtuayfPz7vb-qfGDJ4-42" value="" style="edgeStyle=orthogonalEdgeStyle;html=1;verticalAlign=bottom;endArrow=open;endSize=8;strokeColor=#E07A5F;rounded=0;labelBackgroundColor=none;fontColor=default;" edge="1" source="q2LtuayfPz7vb-qfGDJ4-41" parent="1">
          <mxGeometry relative="1" as="geometry">
            <mxPoint x="535" y="120" as="targetPoint" />
          </mxGeometry>
        </mxCell>
        <mxCell id="q2LtuayfPz7vb-qfGDJ4-43" value="Insert Coin" style="rounded=1;whiteSpace=wrap;html=1;strokeWidth=2;labelBackgroundColor=none;fillColor=#F2CC8F;strokeColor=#E07A5F;fontColor=#393C56;" vertex="1" parent="1">
          <mxGeometry x="490" y="120" width="95" height="40" as="geometry" />
        </mxCell>
        <mxCell id="q2LtuayfPz7vb-qfGDJ4-44" value="" style="endArrow=classic;html=1;rounded=0;exitX=0.5;exitY=1;exitDx=0;exitDy=0;labelBackgroundColor=none;strokeColor=#E07A5F;fontColor=default;" edge="1" parent="1" source="q2LtuayfPz7vb-qfGDJ4-43">
          <mxGeometry width="50" height="50" relative="1" as="geometry">
            <mxPoint x="500" y="300" as="sourcePoint" />
            <mxPoint x="538" y="200" as="targetPoint" />
          </mxGeometry>
        </mxCell>
        <mxCell id="q2LtuayfPz7vb-qfGDJ4-45" value="Select Product&amp;nbsp;" style="rounded=1;whiteSpace=wrap;html=1;strokeWidth=2;labelBackgroundColor=none;fillColor=#F2CC8F;strokeColor=#E07A5F;fontColor=#393C56;" vertex="1" parent="1">
          <mxGeometry x="490" y="200" width="95" height="40" as="geometry" />
        </mxCell>
        <mxCell id="q2LtuayfPz7vb-qfGDJ4-47" value="" style="endArrow=classic;html=1;rounded=0;exitX=0.5;exitY=1;exitDx=0;exitDy=0;labelBackgroundColor=none;strokeColor=#E07A5F;fontColor=default;" edge="1" parent="1">
          <mxGeometry width="50" height="50" relative="1" as="geometry">
            <mxPoint x="537" y="240" as="sourcePoint" />
            <mxPoint x="537" y="280" as="targetPoint" />
          </mxGeometry>
        </mxCell>
        <mxCell id="q2LtuayfPz7vb-qfGDJ4-49" value="Check if Money is =&amp;gt; then product&amp;nbsp;" style="rhombus;whiteSpace=wrap;html=1;labelBackgroundColor=none;fillColor=#F2CC8F;strokeColor=#E07A5F;fontColor=#393C56;" vertex="1" parent="1">
          <mxGeometry x="471.25" y="280" width="132.5" height="140" as="geometry" />
        </mxCell>
        <mxCell id="q2LtuayfPz7vb-qfGDJ4-50" value="" style="endArrow=classic;html=1;rounded=0;entryX=0.5;entryY=0;entryDx=0;entryDy=0;labelBackgroundColor=none;strokeColor=#E07A5F;fontColor=default;" edge="1" parent="1" target="q2LtuayfPz7vb-qfGDJ4-51">
          <mxGeometry width="50" height="50" relative="1" as="geometry">
            <mxPoint x="603.75" y="350" as="sourcePoint" />
            <mxPoint x="710" y="420" as="targetPoint" />
            <Array as="points">
              <mxPoint x="678" y="350" />
            </Array>
          </mxGeometry>
        </mxCell>
        <mxCell id="q2LtuayfPz7vb-qfGDJ4-51" value="insuficient money" style="rounded=1;whiteSpace=wrap;html=1;strokeWidth=2;labelBackgroundColor=none;fillColor=#F2CC8F;strokeColor=#E07A5F;fontColor=#393C56;" vertex="1" parent="1">
          <mxGeometry x="630" y="420" width="95" height="40" as="geometry" />
        </mxCell>
        <mxCell id="q2LtuayfPz7vb-qfGDJ4-52" value="Enable Select Button" style="rounded=1;whiteSpace=wrap;html=1;strokeWidth=2;labelBackgroundColor=none;fillColor=#F2CC8F;strokeColor=#E07A5F;fontColor=#393C56;" vertex="1" parent="1">
          <mxGeometry x="350" y="420" width="95" height="40" as="geometry" />
        </mxCell>
        <mxCell id="q2LtuayfPz7vb-qfGDJ4-53" value="" style="endArrow=classic;html=1;rounded=0;entryX=0.5;entryY=0;entryDx=0;entryDy=0;labelBackgroundColor=none;strokeColor=#E07A5F;fontColor=default;" edge="1" parent="1" target="q2LtuayfPz7vb-qfGDJ4-52">
          <mxGeometry width="50" height="50" relative="1" as="geometry">
            <mxPoint x="471.25" y="350" as="sourcePoint" />
            <mxPoint x="577.5" y="420" as="targetPoint" />
            <Array as="points">
              <mxPoint x="398" y="350" />
            </Array>
          </mxGeometry>
        </mxCell>
        <mxCell id="q2LtuayfPz7vb-qfGDJ4-54" value="" style="endArrow=classic;html=1;rounded=0;exitX=1;exitY=0.5;exitDx=0;exitDy=0;entryX=1;entryY=0.5;entryDx=0;entryDy=0;labelBackgroundColor=none;strokeColor=#E07A5F;fontColor=default;" edge="1" parent="1" source="q2LtuayfPz7vb-qfGDJ4-51" target="q2LtuayfPz7vb-qfGDJ4-43">
          <mxGeometry width="50" height="50" relative="1" as="geometry">
            <mxPoint x="500" y="300" as="sourcePoint" />
            <mxPoint x="550" y="250" as="targetPoint" />
            <Array as="points">
              <mxPoint x="800" y="440" />
              <mxPoint x="800" y="140" />
            </Array>
          </mxGeometry>
        </mxCell>
        <mxCell id="q2LtuayfPz7vb-qfGDJ4-55" value="dispense soft drink" style="rounded=1;whiteSpace=wrap;html=1;strokeWidth=2;labelBackgroundColor=none;fillColor=#F2CC8F;strokeColor=#E07A5F;fontColor=#393C56;" vertex="1" parent="1">
          <mxGeometry x="490" y="490" width="95" height="40" as="geometry" />
        </mxCell>
        <mxCell id="q2LtuayfPz7vb-qfGDJ4-56" value="" style="endArrow=classic;html=1;rounded=0;exitX=0.5;exitY=1;exitDx=0;exitDy=0;entryX=0;entryY=0.5;entryDx=0;entryDy=0;labelBackgroundColor=none;strokeColor=#E07A5F;fontColor=default;" edge="1" parent="1" source="q2LtuayfPz7vb-qfGDJ4-52" target="q2LtuayfPz7vb-qfGDJ4-55">
          <mxGeometry width="50" height="50" relative="1" as="geometry">
            <mxPoint x="570" y="380" as="sourcePoint" />
            <mxPoint x="620" y="330" as="targetPoint" />
            <Array as="points">
              <mxPoint x="398" y="510" />
            </Array>
          </mxGeometry>
        </mxCell>
        <mxCell id="q2LtuayfPz7vb-qfGDJ4-57" value="" style="endArrow=classic;html=1;rounded=0;exitX=0.5;exitY=1;exitDx=0;exitDy=0;labelBackgroundColor=none;strokeColor=#E07A5F;fontColor=default;" edge="1" parent="1">
          <mxGeometry width="50" height="50" relative="1" as="geometry">
            <mxPoint x="534.5" y="530" as="sourcePoint" />
            <mxPoint x="534.5" y="570" as="targetPoint" />
          </mxGeometry>
        </mxCell>
        <mxCell id="q2LtuayfPz7vb-qfGDJ4-58" value="Calclate Change" style="rounded=1;whiteSpace=wrap;html=1;strokeWidth=2;labelBackgroundColor=none;fillColor=#F2CC8F;strokeColor=#E07A5F;fontColor=#393C56;" vertex="1" parent="1">
          <mxGeometry x="487.5" y="570" width="95" height="40" as="geometry" />
        </mxCell>
        <mxCell id="q2LtuayfPz7vb-qfGDJ4-59" value="" style="endArrow=classic;html=1;rounded=0;exitX=0.5;exitY=1;exitDx=0;exitDy=0;labelBackgroundColor=none;strokeColor=#E07A5F;fontColor=default;" edge="1" parent="1">
          <mxGeometry width="50" height="50" relative="1" as="geometry">
            <mxPoint x="534.5" y="610" as="sourcePoint" />
            <mxPoint x="534.5" y="650" as="targetPoint" />
          </mxGeometry>
        </mxCell>
        <mxCell id="q2LtuayfPz7vb-qfGDJ4-61" value="Dispense Change" style="rounded=1;whiteSpace=wrap;html=1;strokeWidth=2;labelBackgroundColor=none;fillColor=#F2CC8F;strokeColor=#E07A5F;fontColor=#393C56;" vertex="1" parent="1">
          <mxGeometry x="487.5" y="650" width="95" height="40" as="geometry" />
        </mxCell>
        <mxCell id="q2LtuayfPz7vb-qfGDJ4-64" value="" style="edgeStyle=orthogonalEdgeStyle;html=1;verticalAlign=bottom;endArrow=open;endSize=8;strokeColor=#E07A5F;rounded=0;labelBackgroundColor=none;fontColor=default;" edge="1" parent="1">
          <mxGeometry relative="1" as="geometry">
            <mxPoint x="537" y="750" as="targetPoint" />
            <mxPoint x="537" y="690" as="sourcePoint" />
          </mxGeometry>
        </mxCell>
        <mxCell id="q2LtuayfPz7vb-qfGDJ4-66" value="" style="ellipse;html=1;shape=endState;fillColor=#F2CC8F;strokeColor=#E07A5F;labelBackgroundColor=none;fontColor=#393C56;" vertex="1" parent="1">
          <mxGeometry x="522.5" y="750" width="30" height="30" as="geometry" />
        </mxCell>
        <mxCell id="q2LtuayfPz7vb-qfGDJ4-67" value="YES" style="text;html=1;align=center;verticalAlign=middle;whiteSpace=wrap;rounded=0;labelBackgroundColor=none;fontColor=#393C56;" vertex="1" parent="1">
          <mxGeometry x="400" y="310" width="60" height="30" as="geometry" />
        </mxCell>
        <mxCell id="q2LtuayfPz7vb-qfGDJ4-68" value="NO" style="text;html=1;align=center;verticalAlign=middle;whiteSpace=wrap;rounded=0;labelBackgroundColor=none;fontColor=#393C56;" vertex="1" parent="1">
          <mxGeometry x="620" y="310" width="60" height="30" as="geometry" />
        </mxCell>
      </root>
    </mxGraphModel>
  </diagram>
</mxfile>
